<mxfile host="drawio-plugin" modified="2022-11-30T15:46:41.731Z" agent="5.0 (X11; Linux x86_64) AppleWebKit/537.36 (KHTML, like Gecko) Chrome/98.0.4758.102 Safari/537.36" version="20.5.3" etag="Fi3r-fQTw4Kr_mOBJ4p9" type="embed"><diagram id="aBWBXhsfsFhqMMRN7G75" name="Page-1"><mxGraphModel dx="1326" dy="1123" grid="1" gridSize="10" guides="1" tooltips="1" connect="1" arrows="1" fold="1" page="0" pageScale="1" pageWidth="827" pageHeight="1169" math="0" shadow="0"><root><mxCell id="0"/><mxCell id="1" parent="0"/><mxCell id="node6" value="&lt;p style=&quot;margin:0px;margin-top:4px;text-align:center;&quot;&gt;&lt;b&gt;calendar_event&lt;/b&gt;&lt;/p&gt;&lt;hr size=&quot;1&quot;/&gt;&lt;p style=&quot;margin:0 0 0 4px;line-height:1.6;&quot;&gt; title: text&lt;br/&gt; start_time: text&lt;br/&gt; end_time: text&lt;br/&gt; start_date: text&lt;br/&gt; end_date: text&lt;br/&gt; notes: text&lt;br/&gt; location: text&lt;br/&gt; email_notification: integer&lt;br/&gt; gid: integer&lt;/p&gt;&lt;hr size=&quot;1&quot;/&gt;&lt;p style=&quot;margin:0 0 0 4px;line-height:1.6;&quot;&gt; id: integer&lt;/p&gt;" style="verticalAlign=top;align=left;overflow=fill;fontSize=14;fontFamily=Helvetica;html=1;rounded=0;shadow=0;comic=0;labelBackgroundColor=none;strokeWidth=1;fillColor=#21C0A5;strokeColor=#006658;fontColor=#5C5C5C;" parent="1" vertex="1"><mxGeometry x="-55" y="714" width="216" height="275" as="geometry"/></mxCell><mxCell id="node0" value="&lt;p style=&quot;margin:0px;margin-top:4px;text-align:center;&quot;&gt;&lt;b&gt;household&lt;/b&gt;&lt;/p&gt;&lt;hr size=&quot;1&quot;/&gt;&lt;p style=&quot;margin:0 0 0 4px;line-height:1.6;&quot;&gt; name: text&lt;br/&gt; password: text&lt;br/&gt; max_usrs: integer&lt;br/&gt; house_number: integer&lt;br/&gt; road: integer&lt;br/&gt; postcode: integer&lt;/p&gt;&lt;hr size=&quot;1&quot;/&gt;&lt;p style=&quot;margin:0 0 0 4px;line-height:1.6;&quot;&gt; id: integer&lt;/p&gt;" style="verticalAlign=top;align=left;overflow=fill;fontSize=14;fontFamily=Helvetica;html=1;rounded=0;shadow=0;comic=0;labelBackgroundColor=none;strokeWidth=1;fillColor=#21C0A5;strokeColor=#006658;fontColor=#5C5C5C;" parent="1" vertex="1"><mxGeometry x="158" y="-5" width="191" height="203" as="geometry"/></mxCell><mxCell id="node5" value="&lt;p style=&quot;margin:0px;margin-top:4px;text-align:center;&quot;&gt;&lt;b&gt;list&lt;/b&gt;&lt;/p&gt;&lt;hr size=&quot;1&quot;/&gt;&lt;p style=&quot;margin:0 0 0 4px;line-height:1.6;&quot;&gt; name: text&lt;br/&gt; gid: integer&lt;/p&gt;&lt;hr size=&quot;1&quot;/&gt;&lt;p style=&quot;margin:0 0 0 4px;line-height:1.6;&quot;&gt; id: integer&lt;/p&gt;" style="verticalAlign=top;align=left;overflow=fill;fontSize=14;fontFamily=Helvetica;html=1;rounded=0;shadow=0;comic=0;labelBackgroundColor=none;strokeWidth=1;fillColor=#21C0A5;strokeColor=#006658;fontColor=#5C5C5C;" parent="1" vertex="1"><mxGeometry x="-108" y="298" width="107" height="116" as="geometry"/></mxCell><mxCell id="node7" value="&lt;p style=&quot;margin:0px;margin-top:4px;text-align:center;&quot;&gt;&lt;b&gt;list_event&lt;/b&gt;&lt;/p&gt;&lt;hr size=&quot;1&quot;/&gt;&lt;p style=&quot;margin:0 0 0 4px;line-height:1.6;&quot;&gt; task: text&lt;br/&gt; description: text&lt;br/&gt; added_by: integer&lt;br/&gt; checked_off: integer&lt;/p&gt;&lt;hr size=&quot;1&quot;/&gt;&lt;p style=&quot;margin:0 0 0 4px;line-height:1.6;&quot;&gt; id: integer&lt;/p&gt;" style="verticalAlign=top;align=left;overflow=fill;fontSize=14;fontFamily=Helvetica;html=1;rounded=0;shadow=0;comic=0;labelBackgroundColor=none;strokeWidth=1;fillColor=#21C0A5;strokeColor=#006658;fontColor=#5C5C5C;" parent="1" vertex="1"><mxGeometry x="328" y="507" width="173" height="155" as="geometry"/></mxCell><mxCell id="node2" value="&lt;p style=&quot;margin:0px;margin-top:4px;text-align:center;&quot;&gt;&lt;b&gt;notifications&lt;/b&gt;&lt;/p&gt;&lt;hr size=&quot;1&quot;/&gt;&lt;p style=&quot;margin:0 0 0 4px;line-height:1.6;&quot;&gt; usr_email: text&lt;/p&gt;&lt;hr size=&quot;1&quot;/&gt;&lt;p style=&quot;margin:0 0 0 4px;line-height:1.6;&quot;&gt; id: integer&lt;/p&gt;" style="verticalAlign=top;align=left;overflow=fill;fontSize=14;fontFamily=Helvetica;html=1;rounded=0;shadow=0;comic=0;labelBackgroundColor=none;strokeWidth=1;fillColor=#21C0A5;strokeColor=#006658;fontColor=#5C5C5C;" parent="1" vertex="1"><mxGeometry x="20" y="543" width="152" height="90" as="geometry"/></mxCell><mxCell id="node4" value="&lt;p style=&quot;margin:0px;margin-top:4px;text-align:center;&quot;&gt;&lt;b&gt;pairs&lt;/b&gt;&lt;/p&gt;&lt;hr size=&quot;1&quot;/&gt;&lt;p style=&quot;margin:0 0 0 4px;line-height:1.6;&quot;&gt; src: integer&lt;br/&gt; dest: integer&lt;/p&gt;&lt;hr size=&quot;1&quot;/&gt;&lt;p style=&quot;margin:0 0 0 4px;line-height:1.6;&quot;&gt; id: integer&lt;/p&gt;" style="verticalAlign=top;align=left;overflow=fill;fontSize=14;fontFamily=Helvetica;html=1;rounded=0;shadow=0;comic=0;labelBackgroundColor=none;strokeWidth=1;fillColor=#21C0A5;strokeColor=#006658;fontColor=#5C5C5C;" parent="1" vertex="1"><mxGeometry x="192" y="531" width="116" height="116" as="geometry"/></mxCell><mxCell id="node3" value="&lt;p style=&quot;margin:0px;margin-top:4px;text-align:center;&quot;&gt;&lt;b&gt;postcode&lt;/b&gt;&lt;/p&gt;&lt;hr size=&quot;1&quot;/&gt;&lt;p style=&quot;margin:0 0 0 4px;line-height:1.6;&quot;&gt; name: text&lt;/p&gt;&lt;hr size=&quot;1&quot;/&gt;&lt;p style=&quot;margin:0 0 0 4px;line-height:1.6;&quot;&gt; id: integer&lt;/p&gt;" style="verticalAlign=top;align=left;overflow=fill;fontSize=14;fontFamily=Helvetica;html=1;rounded=0;shadow=0;comic=0;labelBackgroundColor=none;strokeWidth=1;fillColor=#21C0A5;strokeColor=#006658;fontColor=#5C5C5C;" parent="1" vertex="1"><mxGeometry x="128" y="-138" width="120" height="90" as="geometry"/></mxCell><mxCell id="node1" value="&lt;p style=&quot;margin:0px;margin-top:4px;text-align:center;&quot;&gt;&lt;b&gt;road&lt;/b&gt;&lt;/p&gt;&lt;hr size=&quot;1&quot;/&gt;&lt;p style=&quot;margin:0 0 0 4px;line-height:1.6;&quot;&gt; name: text&lt;/p&gt;&lt;hr size=&quot;1&quot;/&gt;&lt;p style=&quot;margin:0 0 0 4px;line-height:1.6;&quot;&gt; id: integer&lt;/p&gt;" style="verticalAlign=top;align=left;overflow=fill;fontSize=14;fontFamily=Helvetica;html=1;rounded=0;shadow=0;comic=0;labelBackgroundColor=none;strokeWidth=1;fillColor=#21C0A5;strokeColor=#006658;fontColor=#5C5C5C;" parent="1" vertex="1"><mxGeometry x="268" y="-138" width="104" height="90" as="geometry"/></mxCell><mxCell id="node9" value="&lt;p style=&quot;margin:0px;margin-top:4px;text-align:center;&quot;&gt;&lt;b&gt;transactions&lt;/b&gt;&lt;/p&gt;&lt;hr size=&quot;1&quot;/&gt;&lt;p style=&quot;margin:0 0 0 4px;line-height:1.6;&quot;&gt; pair_id: integer&lt;br/&gt; house_id: integer&lt;br/&gt; amount: integer&lt;br/&gt; reference: text&lt;br/&gt; description: text&lt;br/&gt; due_date: text&lt;/p&gt;&lt;hr size=&quot;1&quot;/&gt;&lt;p style=&quot;margin:0 0 0 4px;line-height:1.6;&quot;&gt; id: integer&lt;/p&gt;" style="verticalAlign=top;align=left;overflow=fill;fontSize=14;fontFamily=Helvetica;html=1;rounded=0;shadow=0;comic=0;labelBackgroundColor=none;strokeWidth=1;fillColor=#21C0A5;strokeColor=#006658;fontColor=#5C5C5C;" parent="1" vertex="1"><mxGeometry x="307" y="750" width="149" height="203" as="geometry"/></mxCell><mxCell id="node8" value="&lt;p style=&quot;margin:0px;margin-top:4px;text-align:center;&quot;&gt;&lt;b&gt;users&lt;/b&gt;&lt;/p&gt;&lt;hr size=&quot;1&quot;/&gt;&lt;p style=&quot;margin:0 0 0 4px;line-height:1.6;&quot;&gt; name: text&lt;br/&gt; surname: text&lt;br/&gt; password: text&lt;br/&gt; email: text&lt;br/&gt; date_of_birth: text&lt;br/&gt; gid: integer&lt;/p&gt;&lt;hr size=&quot;1&quot;/&gt;&lt;p style=&quot;margin:0 0 0 4px;line-height:1.6;&quot;&gt; id: integer&lt;/p&gt;" style="verticalAlign=top;align=left;overflow=fill;fontSize=14;fontFamily=Helvetica;html=1;rounded=0;shadow=0;comic=0;labelBackgroundColor=none;strokeWidth=1;fillColor=#21C0A5;strokeColor=#006658;fontColor=#5C5C5C;" parent="1" vertex="1"><mxGeometry x="174" y="250" width="163" height="203" as="geometry"/></mxCell><mxCell id="edge11" value="" style="html=1;rounded=1;edgeStyle=orthogonalEdgeStyle;dashed=0;startArrow=none;endArrow=block;endSize=12;strokeColor=#006658;exitX=0.250;exitY=0.000;exitDx=0;exitDy=0;entryX=0.250;entryY=1.000;entryDx=0;entryDy=0;fontColor=#5C5C5C;" parent="1" source="node6" target="node0" edge="1"><mxGeometry width="50" height="50" relative="1" as="geometry"><Array as="points"><mxPoint x="-1" y="688"/><mxPoint x="9" y="688"/><mxPoint x="9" y="229"/><mxPoint x="21" y="229"/><mxPoint x="21" y="219"/><mxPoint x="206" y="219"/></Array></mxGeometry></mxCell><mxCell id="label68" value="gid:id" style="edgeLabel;resizable=0;html=1;align=left;verticalAlign=top;strokeColor=#006658;fontColor=#5C5C5C;" parent="edge11" vertex="1" connectable="0"><mxGeometry x="2" y="171" as="geometry"/></mxCell><mxCell id="edge8" value="" style="html=1;rounded=1;edgeStyle=orthogonalEdgeStyle;dashed=0;startArrow=none;endArrow=block;endSize=12;strokeColor=#006658;exitX=0.750;exitY=0.000;exitDx=0;exitDy=0;entryX=0.500;entryY=1.000;entryDx=0;entryDy=0;fontColor=#5C5C5C;" parent="1" source="node6" target="node2" edge="1"><mxGeometry width="50" height="50" relative="1" as="geometry"><Array as="points"><mxPoint x="107" y="688"/><mxPoint x="96" y="688"/></Array></mxGeometry></mxCell><mxCell id="label50" value="email_notification:id" style="edgeLabel;resizable=0;html=1;align=left;verticalAlign=top;strokeColor=#006658;fontColor=#5C5C5C;" parent="edge8" vertex="1" connectable="0"><mxGeometry x="-17" y="692" as="geometry"/></mxCell><mxCell id="edge9" value="" style="html=1;rounded=1;edgeStyle=orthogonalEdgeStyle;dashed=0;startArrow=none;endArrow=block;endSize=12;strokeColor=#006658;exitX=0.250;exitY=0.000;exitDx=0;exitDy=0;entryX=0.500;entryY=1.001;entryDx=0;entryDy=0;fontColor=#5C5C5C;" parent="1" source="node0" target="node3" edge="1"><mxGeometry width="50" height="50" relative="1" as="geometry"><Array as="points"><mxPoint x="206" y="-30"/><mxPoint x="188" y="-30"/></Array></mxGeometry></mxCell><mxCell id="label56" value="postcode:id" style="edgeLabel;resizable=0;html=1;align=left;verticalAlign=top;strokeColor=#006658;fontColor=#5C5C5C;" parent="edge9" vertex="1" connectable="0"><mxGeometry x="114" y="-51" as="geometry"/></mxCell><mxCell id="edge4" value="" style="html=1;rounded=1;edgeStyle=orthogonalEdgeStyle;dashed=0;startArrow=none;endArrow=block;endSize=12;strokeColor=#006658;exitX=0.750;exitY=0.000;exitDx=0;exitDy=0;entryX=0.500;entryY=1.001;entryDx=0;entryDy=0;fontColor=#5C5C5C;" parent="1" source="node0" target="node1" edge="1"><mxGeometry width="50" height="50" relative="1" as="geometry"><Array as="points"><mxPoint x="302" y="-30"/><mxPoint x="320" y="-30"/></Array></mxGeometry></mxCell><mxCell id="label26" value="road:id" style="edgeLabel;resizable=0;html=1;align=left;verticalAlign=top;strokeColor=#006658;fontColor=#5C5C5C;" parent="edge4" vertex="1" connectable="0"><mxGeometry x="274" y="-51" as="geometry"/></mxCell><mxCell id="edge0" value="" style="html=1;rounded=1;edgeStyle=orthogonalEdgeStyle;dashed=0;startArrow=none;endArrow=block;endSize=12;strokeColor=#006658;exitX=0.500;exitY=0.000;exitDx=0;exitDy=0;entryX=0.250;entryY=1.000;entryDx=0;entryDy=0;fontColor=#5C5C5C;" parent="1" source="node5" target="node0" edge="1"><mxGeometry width="50" height="50" relative="1" as="geometry"><Array as="points"><mxPoint x="-54" y="229"/><mxPoint x="21" y="229"/><mxPoint x="21" y="219"/><mxPoint x="206" y="219"/></Array></mxGeometry></mxCell><mxCell id="label2" value="gid:id" style="edgeLabel;resizable=0;html=1;align=left;verticalAlign=top;strokeColor=#006658;fontColor=#5C5C5C;" parent="edge0" vertex="1" connectable="0"><mxGeometry x="-36" y="211" as="geometry"/></mxCell><mxCell id="edge1" value="" style="html=1;rounded=1;edgeStyle=orthogonalEdgeStyle;dashed=0;startArrow=none;endArrow=block;endSize=12;strokeColor=#006658;exitX=0.250;exitY=0.000;exitDx=0;exitDy=0;entryX=0.700;entryY=1.000;entryDx=0;entryDy=0;fontColor=#5C5C5C;" parent="1" source="node7" target="node8" edge="1"><mxGeometry width="50" height="50" relative="1" as="geometry"><Array as="points"><mxPoint x="371" y="485"/><mxPoint x="288" y="485"/></Array></mxGeometry></mxCell><mxCell id="label8" value="added_by:id" style="edgeLabel;resizable=0;html=1;align=left;verticalAlign=top;strokeColor=#006658;fontColor=#5C5C5C;" parent="edge1" vertex="1" connectable="0"><mxGeometry x="293" y="487" as="geometry"/></mxCell><mxCell id="edge2" value="" style="html=1;rounded=1;edgeStyle=orthogonalEdgeStyle;dashed=0;startArrow=none;endArrow=block;endSize=12;strokeColor=#006658;exitX=0.750;exitY=0.000;exitDx=0;exitDy=0;entryX=0.900;entryY=1.000;entryDx=0;entryDy=0;fontColor=#5C5C5C;" parent="1" source="node7" target="node8" edge="1"><mxGeometry width="50" height="50" relative="1" as="geometry"><Array as="points"><mxPoint x="458" y="475"/><mxPoint x="320" y="475"/></Array></mxGeometry></mxCell><mxCell id="label14" value="checked_off:id" style="edgeLabel;resizable=0;html=1;align=left;verticalAlign=top;strokeColor=#006658;fontColor=#5C5C5C;" parent="edge2" vertex="1" connectable="0"><mxGeometry x="367" y="466" as="geometry"/></mxCell><mxCell id="edge5" value="" style="html=1;rounded=1;edgeStyle=orthogonalEdgeStyle;dashed=0;startArrow=none;endArrow=block;endSize=12;strokeColor=#006658;exitX=0.500;exitY=0.000;exitDx=0;exitDy=0;entryX=0.100;entryY=1.000;entryDx=0;entryDy=0;fontColor=#5C5C5C;" parent="1" source="node2" target="node8" edge="1"><mxGeometry width="50" height="50" relative="1" as="geometry"><Array as="points"><mxPoint x="96" y="485"/><mxPoint x="190" y="485"/></Array></mxGeometry></mxCell><mxCell id="label32" value="usr_email:email" style="edgeLabel;resizable=0;html=1;align=left;verticalAlign=top;strokeColor=#006658;fontColor=#5C5C5C;" parent="edge5" vertex="1" connectable="0"><mxGeometry x="93" y="460" as="geometry"/></mxCell><mxCell id="edge7" value="" style="html=1;rounded=1;edgeStyle=orthogonalEdgeStyle;dashed=0;startArrow=none;endArrow=block;endSize=12;strokeColor=#006658;exitX=0.250;exitY=0.000;exitDx=0;exitDy=0;entryX=0.300;entryY=1.000;entryDx=0;entryDy=0;fontColor=#5C5C5C;" parent="1" source="node4" target="node8" edge="1"><mxGeometry width="50" height="50" relative="1" as="geometry"><Array as="points"><mxPoint x="221" y="485"/><mxPoint x="222" y="485"/></Array></mxGeometry></mxCell><mxCell id="label44" value="src:id" style="edgeLabel;resizable=0;html=1;align=left;verticalAlign=top;strokeColor=#006658;fontColor=#5C5C5C;" parent="edge7" vertex="1" connectable="0"><mxGeometry x="184" y="499" as="geometry"/></mxCell><mxCell id="edge10" value="" style="html=1;rounded=1;edgeStyle=orthogonalEdgeStyle;dashed=0;startArrow=none;endArrow=block;endSize=12;strokeColor=#006658;exitX=0.750;exitY=0.000;exitDx=0;exitDy=0;entryX=0.500;entryY=1.000;entryDx=0;entryDy=0;fontColor=#5C5C5C;" parent="1" source="node4" target="node8" edge="1"><mxGeometry width="50" height="50" relative="1" as="geometry"><Array as="points"><mxPoint x="279" y="485"/><mxPoint x="255" y="485"/></Array></mxGeometry></mxCell><mxCell id="label62" value="dest:id" style="edgeLabel;resizable=0;html=1;align=left;verticalAlign=top;strokeColor=#006658;fontColor=#5C5C5C;" parent="edge10" vertex="1" connectable="0"><mxGeometry x="234" y="499" as="geometry"/></mxCell><mxCell id="edge3" value="" style="html=1;rounded=1;edgeStyle=orthogonalEdgeStyle;dashed=0;startArrow=none;endArrow=block;endSize=12;strokeColor=#006658;exitX=0.750;exitY=0.000;exitDx=0;exitDy=0;entryX=0.750;entryY=1.000;entryDx=0;entryDy=0;fontColor=#5C5C5C;" parent="1" source="node9" target="node0" edge="1"><mxGeometry width="50" height="50" relative="1" as="geometry"><Array as="points"><mxPoint x="418" y="688"/><mxPoint x="512" y="688"/><mxPoint x="512" y="229"/><mxPoint x="302" y="229"/></Array></mxGeometry></mxCell><mxCell id="label20" value="house_id:id" style="edgeLabel;resizable=0;html=1;align=left;verticalAlign=top;strokeColor=#006658;fontColor=#5C5C5C;" parent="edge3" vertex="1" connectable="0"><mxGeometry x="440" y="450" as="geometry"/></mxCell><mxCell id="edge6" value="" style="html=1;rounded=1;edgeStyle=orthogonalEdgeStyle;dashed=0;startArrow=none;endArrow=block;endSize=12;strokeColor=#006658;exitX=0.250;exitY=0.000;exitDx=0;exitDy=0;entryX=0.500;entryY=1.000;entryDx=0;entryDy=0;fontColor=#5C5C5C;" parent="1" source="node9" target="node4" edge="1"><mxGeometry width="50" height="50" relative="1" as="geometry"><Array as="points"><mxPoint x="344" y="688"/><mxPoint x="250" y="688"/></Array></mxGeometry></mxCell><mxCell id="label38" value="pair_id:id" style="edgeLabel;resizable=0;html=1;align=left;verticalAlign=top;strokeColor=#006658;fontColor=#5C5C5C;" parent="edge6" vertex="1" connectable="0"><mxGeometry x="285" y="679" as="geometry"/></mxCell><mxCell id="edge12" value="" style="html=1;rounded=1;edgeStyle=orthogonalEdgeStyle;dashed=0;startArrow=none;endArrow=block;endSize=12;strokeColor=#006658;exitX=0.500;exitY=0.000;exitDx=0;exitDy=0;entryX=0.250;entryY=1.000;entryDx=0;entryDy=0;fontColor=#5C5C5C;" parent="1" source="node8" target="node0" edge="1"><mxGeometry width="50" height="50" relative="1" as="geometry"><Array as="points"><mxPoint x="255" y="229"/><mxPoint x="21" y="229"/><mxPoint x="21" y="219"/><mxPoint x="206" y="219"/></Array></mxGeometry></mxCell><mxCell id="label74" value="gid:id" style="edgeLabel;resizable=0;html=1;align=left;verticalAlign=top;strokeColor=#006658;fontColor=#5C5C5C;" parent="edge12" vertex="1" connectable="0"><mxGeometry x="2" y="201" as="geometry"/></mxCell></root></mxGraphModel></diagram></mxfile>